<?xml version="1.0" encoding="UTF-8"?>
<!DOCTYPE svg PUBLIC "-//W3C//DTD SVG 1.1//EN" "http://www.w3.org/Graphics/SVG/1.1/DTD/svg11.dtd">
<!-- Creator: CorelDRAW X7 -->
<svg xmlns="http://www.w3.org/2000/svg" xml:space="preserve" width="33.8667mm" height="29.466mm" version="1.1" style="shape-rendering:geometricPrecision; text-rendering:geometricPrecision; image-rendering:optimizeQuality; fill-rule:evenodd; clip-rule:evenodd"
viewBox="0 0 858 746"
 xmlns:xlink="http://www.w3.org/1999/xlink">
 <defs>
  <style type="text/css">
   <![CDATA[
    .fil0 {fill:none}
    .fil1 {fill:#DEC9A5}
   ]]>
  </style>
 </defs>
 <g id="Layer_x0020_1">
  <metadata id="CorelCorpID_0Corel-Layer"/>
  <rect class="fil0" width="858" height="746"/>
  <g id="_733213208">
   <g>
    <path class="fil1" d="M508 693c-8,-45 -31,-90 -55,-128 -31,-50 -84,-84 -123,-128 -83,-94 -125,-216 -138,-339 -4,-33 -6,-66 -10,-98l7 0c2,23 4,45 6,68 5,64 15,127 37,188 22,63 54,122 97,173 38,45 91,79 123,128 26,40 49,88 58,135 0,1 -2,2 -2,1l0 0z"/>
    <path class="fil1" d="M187 0c17,40 35,77 63,110 28,32 62,59 100,79 2,2 0,5 -2,4 -75,-40 -140,-111 -163,-193l2 0z"/>
    <path class="fil1" d="M347 191c-36,-12 -71,-26 -97,-54 -25,-28 -42,-66 -51,-103 -1,-1 1,-2 2,0 13,35 24,70 50,99 25,29 61,42 96,57 0,0 0,1 0,1l0 0z"/>
    <path class="fil1" d="M346 191c-27,-17 -49,-40 -69,-65 -23,-28 -53,-50 -75,-80 -1,-2 1,-4 3,-2 20,28 49,48 71,75 22,26 44,50 71,71 1,0 0,1 -1,1l0 0z"/>
    <path class="fil1" d="M348 191c-10,-5 -17,-16 -24,-25 -11,-14 -22,-28 -33,-41 -13,-15 -26,-28 -41,-40 -17,-13 -36,-25 -49,-43 0,-1 1,-2 2,-1 29,28 63,49 89,80 19,23 37,47 57,70 0,0 0,1 -1,0l0 0z"/>
    <path class="fil1" d="M210 63c2,10 7,19 10,29 3,11 5,24 9,35 9,25 28,46 44,66 8,11 16,20 24,31 8,11 7,13 3,0 -9,-25 -18,-51 -34,-72 -1,-2 1,-4 3,-2 9,13 16,27 22,42 5,12 9,32 17,43 1,1 -1,3 -2,2 -15,-12 -26,-28 -38,-44 -11,-14 -23,-28 -32,-44 -8,-13 -13,-26 -16,-41 -3,-10 -6,-20 -9,-30 -2,-6 -4,-9 -3,-15 0,-2 2,-2 2,0l0 0z"/>
    <path class="fil1" d="M30 275c32,-99 123,-172 145,-275l6 0c-21,103 -112,178 -150,275 0,1 -1,0 -1,0l0 0z"/>
    <path class="fil1" d="M30 275c21,-34 51,-61 71,-96 21,-35 36,-73 50,-112 1,-2 4,-1 4,1 -14,37 -29,74 -48,108 -21,37 -50,66 -76,99 0,1 -1,0 -1,0l0 0z"/>
    <path class="fil1" d="M29 277c-1,-36 18,-73 38,-102 24,-36 59,-64 81,-101 2,-2 5,1 3,2 -21,35 -53,61 -76,93 -12,17 -23,35 -30,54 -8,18 -11,36 -15,55 0,0 -1,0 -1,-1l0 0z"/>
    <path class="fil1" d="M30 276c31,-32 65,-61 87,-100 22,-39 31,-85 44,-128 1,-2 4,-1 4,1 -13,43 -23,90 -45,129 -22,38 -55,72 -89,99 0,0 -1,-1 -1,-1l0 0z"/>
    <path class="fil1" d="M161 53c-1,40 3,80 4,121 0,38 -11,74 -10,112 0,2 -3,3 -3,1 -3,-18 -14,-33 -17,-51 -3,-17 -4,-35 -2,-52 3,-42 16,-82 22,-123 1,-3 5,-2 5,0 -6,40 -18,78 -22,118 -2,19 -3,38 1,56 3,18 13,33 16,51 -1,0 -2,0 -3,0 -1,-38 9,-75 9,-113 0,-39 -9,-81 -2,-121 1,-1 2,-1 2,1l0 0z"/>
    <path class="fil1" d="M202 150c6,24 0,48 -6,71 -8,28 -18,56 -28,84 -9,29 -19,57 -24,86 -7,33 -3,63 5,95 -2,1 -3,1 -4,1 -6,-44 9,-85 21,-126 15,-50 25,-99 29,-151 0,-2 4,-2 4,1 -1,45 -12,91 -24,135 -13,45 -35,93 -26,140 0,3 -4,4 -4,1 -7,-28 -12,-56 -8,-85 4,-27 12,-53 21,-79 18,-56 44,-112 43,-173 0,0 1,0 1,0l0 0z"/>
    <path class="fil1" d="M147 488c-32,-35 -32,-92 -17,-134 17,-49 50,-91 64,-141 0,-2 4,-1 3,1 -12,45 -39,83 -57,126 -10,22 -16,45 -16,69 1,29 12,53 24,79 0,0 0,1 -1,0l0 0z"/>
    <path class="fil1" d="M148 488c-5,-14 5,-32 10,-46 8,-23 18,-46 24,-70 12,-47 12,-96 12,-145 0,-2 3,-2 3,0 1,44 0,87 -8,130 -4,21 -11,41 -19,61 -7,20 -24,49 -20,70 0,1 -1,1 -2,0l0 0z"/>
    <path class="fil1" d="M190 344c5,27 17,47 37,65 3,3 26,19 26,23 0,-4 -12,-19 -15,-25 -10,-23 -18,-48 -26,-72 -7,-21 -14,-43 -18,-64 -1,-3 3,-3 3,-1 6,29 16,57 25,85 10,28 20,55 35,81 1,1 -1,2 -2,1 -30,-28 -62,-49 -66,-93 0,0 1,0 1,0l0 0z"/>
    <path class="fil1" d="M522 318c-57,-2 -114,7 -171,-3 -47,-9 -89,-29 -125,-61 -1,-2 1,-4 3,-3 39,35 85,55 137,62 52,7 104,-1 157,3 1,0 1,2 -1,2l0 0z"/>
    <path class="fil1" d="M517 317c-39,12 -79,20 -120,16 -43,-5 -79,-23 -117,-42 -2,0 -1,-4 1,-3 37,18 74,37 116,41 41,5 80,-5 120,-13 1,0 1,1 0,1l0 0z"/>
    <path class="fil1" d="M522 317c-39,-10 -78,-7 -118,-9 -39,-1 -78,-4 -116,-13 -2,0 -1,-3 1,-3 41,7 81,13 122,14 38,1 75,-1 112,11 0,0 0,0 -1,0l0 0z"/>
    <path class="fil1" d="M522 318c-34,-15 -73,-17 -110,-20 -39,-2 -77,5 -116,-1 -1,0 -1,-1 0,-1 20,-1 40,1 59,0 21,0 42,-1 63,0 36,3 72,5 105,20 1,1 0,2 -1,2l0 0z"/>
    <path class="fil1" d="M297 297c25,20 49,40 79,54 26,12 53,24 82,31 7,2 14,4 21,6 14,2 13,3 4,-1 -12,-4 -24,-10 -35,-17 -11,-6 -20,-15 -30,-22 -13,-8 -29,-12 -43,-19 -2,-1 -1,-4 1,-3 19,9 37,15 54,28 20,15 42,26 65,37 1,0 1,2 0,1 -74,-12 -145,-42 -199,-95 0,0 0,-1 1,0l0 0z"/>
    <path class="fil1" d="M280 663c-20,-48 -20,-97 -14,-148 3,-25 7,-50 9,-75 3,-26 1,-52 1,-79 0,-2 4,-2 4,0 10,46 -2,97 -8,142 -8,55 -10,107 9,160 0,0 -1,1 -1,0l0 0z"/>
    <path class="fil1" d="M279 664c-18,-30 -28,-64 -26,-99 1,-36 12,-72 21,-107 0,-3 4,-2 4,1 -8,33 -19,67 -21,101 -3,37 8,70 24,103 0,1 -1,2 -2,1l0 0z"/>
    <path class="fil1" d="M279 664c0,-17 2,-34 3,-51 0,-19 -1,-38 -3,-57 -2,-33 -5,-66 -4,-99 1,-3 4,-3 4,0 -3,69 12,138 2,207 0,1 -2,1 -2,0l0 0z"/>
    <path class="fil1" d="M280 664c8,-39 17,-75 12,-115 -2,-17 -7,-34 -10,-52 -3,-18 -4,-37 -4,-55 0,-2 3,-3 3,-1 2,22 2,43 6,64 3,18 8,36 9,54 3,35 -2,73 -15,105 -1,1 -1,0 -1,0l0 0z"/>
    <path class="fil1" d="M277 423c-6,34 -25,57 -42,86 -21,33 -36,69 -39,108 -1,-1 -3,-1 -4,-1 9,-26 28,-46 43,-69 18,-26 29,-56 37,-86 1,-3 4,-2 3,1 -7,27 -16,54 -31,78 -16,26 -39,48 -48,77 -1,2 -4,1 -4,-1 3,-32 14,-62 30,-90 8,-15 17,-29 27,-43 13,-19 21,-37 26,-60 0,-1 2,-1 2,0l0 0z"/>
    <path class="fil1" d="M595 477c-46,-10 -91,-5 -137,-8 -42,-3 -84,-14 -124,-29 -2,-1 -1,-3 1,-3 44,15 88,27 135,29 42,2 84,0 126,10 0,1 0,1 -1,1l0 0z"/>
    <path class="fil1" d="M596 479c-31,-4 -61,-2 -92,-1 -32,0 -62,-5 -92,-17 -2,-1 -1,-4 1,-3 32,12 65,18 99,16 27,-1 57,-6 84,2 1,1 1,3 0,3l0 0z"/>
    <path class="fil1" d="M592 476c-32,-8 -65,-19 -99,-17 -29,2 -57,5 -86,1 -2,0 -2,-3 1,-3 31,1 62,-2 94,-2 31,0 62,10 90,20 1,0 1,1 0,1l0 0z"/>
    <path class="fil1" d="M594 478c-37,1 -70,19 -107,14 -15,-1 -30,-6 -45,-11 -17,-7 -33,-19 -51,-24 -2,-1 -1,-3 0,-3 16,3 29,13 43,19 18,8 37,14 56,16 36,4 69,-13 104,-12 1,0 0,1 0,1l0 0z"/>
    <path class="fil1" d="M434 476c17,8 30,19 43,32 21,21 39,37 68,42 6,0 11,2 16,2 4,0 3,1 0,-1 -11,-6 -21,-11 -30,-18 -19,-14 -34,-32 -55,-43 -2,-1 0,-3 2,-2 15,7 26,18 39,29 16,15 33,26 53,35 1,1 1,3 -1,3 -25,-2 -50,-5 -71,-22 -22,-18 -39,-41 -64,-56 -1,-1 0,-2 0,-1l0 0z"/>
    <path class="fil1" d="M508 692c-14,-23 -20,-50 -33,-73 -10,-18 -18,-38 -31,-55 -12,-16 -22,-32 -33,-49 -1,-2 2,-3 3,-1 6,10 12,20 18,30 7,10 15,18 21,27 10,15 16,31 24,47 13,23 21,49 32,74 0,0 -1,1 -1,0l0 0z"/>
    <path class="fil1" d="M508 693c-5,-28 -8,-57 -18,-84 -14,-38 -45,-70 -78,-94 -1,-1 0,-3 2,-2 33,23 64,55 78,94 10,26 16,58 17,86 0,1 -1,1 -1,0l0 0z"/>
    <path class="fil1" d="M507 691c-10,-15 -24,-29 -34,-44 -9,-14 -17,-28 -25,-42 -17,-31 -28,-65 -44,-97 0,-1 2,-2 3,-1 16,32 27,65 43,97 10,17 19,33 30,49 9,13 21,24 28,38 0,1 -1,1 -1,0l0 0z"/>
    <path class="fil1" d="M499 676c-14,-19 -23,-41 -35,-61 -10,-15 -20,-31 -28,-48 -8,-17 -13,-35 -22,-51 -1,-1 1,-3 2,-2 9,14 13,29 20,44 7,18 17,35 27,51 7,12 15,23 21,35 5,11 9,22 15,32 0,0 0,0 0,0l0 0z"/>
    <path class="fil1" d="M413 524c19,48 -9,101 6,149 1,3 2,7 4,10 3,3 3,5 0,5 -2,-2 -1,-12 -1,-15 -1,-10 0,-21 3,-31 6,-29 10,-54 1,-83 0,-2 3,-2 4,0 6,20 7,41 3,62 -5,25 -12,46 -6,72 0,1 -2,2 -3,1 -12,-25 -13,-47 -11,-75 2,-33 4,-62 -1,-95 0,-1 1,-1 1,0l0 0z"/>
    <path class="fil1" d="M280 454c17,20 34,43 44,68 4,10 6,20 8,30 4,17 12,31 21,45 1,1 -1,3 -1,2 -21,-17 -36,-37 -45,-62 -5,-13 -10,-27 -16,-40 -6,-11 -9,-24 -12,-36 0,-2 2,-2 2,-1 4,14 8,28 15,40 6,12 9,24 13,36 4,12 10,24 18,34 4,6 8,12 13,17 4,4 10,13 5,2 -5,-8 -10,-16 -13,-26 -3,-10 -4,-20 -7,-31 -8,-28 -28,-53 -46,-77 -1,-1 0,-2 1,-1l0 0z"/>
    <path class="fil1" d="M190 0c20,22 43,41 68,56 14,8 29,16 44,22 5,2 18,4 21,8 4,4 -6,-1 -7,-2 -11,-9 -20,-19 -31,-28 -12,-9 -24,-17 -38,-24 -19,-9 -40,-18 -56,-32l7 0c17,14 38,22 58,33 12,7 24,15 36,24 12,10 22,24 36,30 2,1 1,4 -1,3 -53,-16 -104,-47 -140,-90l3 0z"/>
   </g>
   <g>
    <path class="fil1" d="M788 210c-54,-31 -97,-75 -155,-102 -46,-21 -96,-33 -145,-45 -30,-6 -58,-16 -84,-33 -13,-9 -24,-19 -36,-30l-11 0c31,30 69,55 112,65 52,13 104,22 154,43 60,26 108,71 165,103 0,0 0,-1 0,-1l0 0z"/>
    <path class="fil1" d="M377 0c15,3 31,2 45,0l-45 0z"/>
    <path class="fil1" d="M501 0c-3,1 -5,2 -7,3 -30,10 -72,8 -103,-3l-11 0c1,0 1,0 1,0 30,13 66,14 97,10 12,-2 22,-5 33,-10l-10 0z"/>
    <path class="fil1" d="M450 224c-3,-20 -9,-40 -18,-59 -10,-20 -22,-39 -31,-61 -13,-33 -18,-73 -38,-104l-7 0c18,33 25,69 39,104 8,20 20,38 31,57 10,20 18,42 24,63 0,1 0,1 0,0l0 0z"/>
    <path class="fil1" d="M375 34c20,29 43,54 55,87 13,34 15,69 18,104 2,0 3,0 5,-1 -3,-12 -10,-21 -18,-31 -13,-18 -28,-34 -40,-53 -11,-18 -19,-38 -20,-59 -1,-16 4,-31 2,-47 0,-3 -3,-2 -3,0 1,16 -5,32 -3,48 1,17 7,34 15,50 8,16 19,30 30,44 12,14 29,31 32,49 1,3 5,2 5,-1 -4,-35 -6,-70 -20,-104 -12,-33 -35,-59 -57,-86 -1,-1 -1,0 -1,0l0 0z"/>
    <path class="fil1" d="M700 28c-50,-8 -100,2 -151,5 -49,4 -99,12 -147,-4 -3,-1 -5,3 -2,5 16,9 39,10 58,11 25,1 49,-2 74,-5 56,-4 112,-16 168,-12 0,0 0,0 0,0l0 0z"/>
    <path class="fil1" d="M486 42c16,-5 31,-13 47,-20 19,-7 39,-11 59,-13 19,-1 39,-1 58,4 17,3 31,14 48,17 0,-1 0,-3 0,-4 -37,-2 -71,18 -107,26 -19,4 -40,6 -59,1 -16,-4 -30,-11 -46,-13 -3,0 -3,3 -1,4 18,2 33,11 50,14 15,4 32,3 47,0 38,-6 76,-32 116,-28 2,0 2,-4 0,-4 -18,-4 -34,-15 -52,-18 -17,-4 -35,-4 -52,-2 -18,1 -35,5 -52,10 -20,7 -37,18 -57,26 0,0 0,0 1,0l0 0z"/>
    <path class="fil1" d="M584 237c-13,-34 -43,-65 -67,-93 -18,-19 -39,-36 -56,-56 -15,-16 -26,-36 -44,-49 -3,-2 -6,2 -3,5 17,13 29,33 44,49 17,19 38,35 55,54 25,27 54,57 69,91 1,1 2,0 2,-1l0 0z"/>
    <path class="fil1" d="M433 59c14,16 35,21 52,32 18,12 34,27 47,44 12,14 19,31 26,48 9,18 17,37 23,57 2,-1 3,-1 4,-2 -17,-31 -52,-54 -79,-78 -14,-11 -28,-23 -38,-38 -14,-19 -24,-42 -33,-64 -1,-2 -4,0 -3,2 14,37 32,69 62,95 29,26 69,50 88,85 1,2 4,1 3,-1 -6,-19 -14,-38 -22,-56 -7,-15 -14,-32 -24,-46 -12,-15 -27,-30 -42,-42 -20,-15 -44,-21 -63,-37 -1,0 -2,1 -1,1l0 0z"/>
    <path class="fil1" d="M820 42c-40,-8 -76,7 -112,21 -46,18 -93,25 -142,20 -3,0 -3,4 0,4 40,5 80,1 119,-13 43,-15 87,-40 134,-31 1,0 1,-1 1,-1l0 0z"/>
    <path class="fil1" d="M607 86c31,12 68,3 99,-7 38,-12 74,-30 115,-33 2,0 2,-3 0,-4 -7,-2 -13,-9 -21,-12 -8,-3 -16,-6 -25,-6 -15,-2 -31,1 -46,6 -43,13 -79,42 -122,54 -2,1 -1,4 0,3 63,-14 130,-88 197,-51 3,1 14,7 14,9 -1,-5 -25,1 -27,2 -19,4 -38,11 -56,18 -43,16 -82,27 -128,20 -1,0 -1,1 0,1l0 0z"/>
    <path class="fil1" d="M688 244c-25,-26 -44,-55 -65,-85 -21,-29 -47,-71 -83,-82 -1,-1 -2,1 -1,2 37,23 62,55 86,90 19,28 37,53 62,76 1,1 2,0 1,-1l0 0z"/>
    <path class="fil1" d="M566 96c14,10 30,18 42,29 15,13 26,29 35,47 13,25 26,51 43,74 1,-1 2,-2 3,-2 -5,-5 -11,-7 -16,-11 -14,-9 -27,-19 -39,-30 -17,-16 -32,-34 -44,-54 -11,-18 -14,-40 -26,-58 -1,-2 -4,0 -3,2 12,19 16,41 28,60 11,18 24,35 39,49 11,11 23,20 36,29 7,5 16,9 22,15 2,2 4,-1 3,-2 -21,-28 -33,-60 -52,-89 -17,-28 -42,-44 -70,-60 -1,0 -2,1 -1,1l0 0z"/>
    <path class="fil1" d="M622 108c34,3 69,11 97,32 14,10 26,24 36,38 6,7 11,14 18,20 1,1 9,9 9,9 1,-2 -4,-2 -7,-3 -32,-12 -64,-26 -90,-48 -20,-16 -39,-38 -62,-50 -1,-1 -2,1 -1,1 24,19 45,41 70,59 29,21 62,33 95,46 2,1 3,-1 2,-3 -26,-24 -45,-57 -75,-77 -27,-17 -60,-25 -92,-27 -1,0 -1,3 0,3l0 0z"/>
   </g>
  </g>
 </g>
</svg>
