<?xml version="1.0" encoding="UTF-8"?>
<!DOCTYPE svg PUBLIC "-//W3C//DTD SVG 1.1//EN" "http://www.w3.org/Graphics/SVG/1.1/DTD/svg11.dtd">
<!-- Creator: CorelDRAW X7 -->
<svg xmlns="http://www.w3.org/2000/svg" xml:space="preserve" width="33.8667mm" height="29.466mm" version="1.1" style="shape-rendering:geometricPrecision; text-rendering:geometricPrecision; image-rendering:optimizeQuality; fill-rule:evenodd; clip-rule:evenodd"
viewBox="0 0 30965 26942"
 xmlns:xlink="http://www.w3.org/1999/xlink">
 <defs>
  <style type="text/css">
   <![CDATA[
    .fil0 {fill:none}
    .fil1 {fill:#DEC9A5}
   ]]>
  </style>
 </defs>
 <g id="Layer_x0020_1">
  <metadata id="CorelCorpID_0Corel-Layer"/>
  <rect class="fil0" width="30965" height="26942"/>
  <g id="_830201800">
   <g>
    <path class="fil1" d="M12631 25004c294,-1610 1104,-3236 1969,-4611 1142,-1814 3051,-3036 4456,-4634 2977,-3383 4525,-7771 4992,-12207 126,-1199 209,-2382 359,-3552l-262 0c-88,818 -137,1641 -202,2438 -188,2320 -576,4609 -1349,6811 -795,2265 -1963,4403 -3516,6239 -1368,1616 -3276,2838 -4433,4620 -935,1438 -1784,3181 -2076,4884 -7,40 55,52 62,11l0 1z"/>
    <path class="fil1" d="M24202 0c-586,1438 -1261,2769 -2277,3960 -1005,1179 -2221,2148 -3586,2879 -78,42 -1,156 77,115 2684,-1435 5043,-3980 5887,-6954l-101 0z"/>
    <path class="fil1" d="M18456 6881c1288,-405 2547,-925 3475,-1944 926,-1018 1538,-2370 1858,-3700 10,-41 -57,-64 -72,-23 -465,1275 -884,2530 -1800,3571 -933,1060 -2198,1544 -3471,2068 -17,7 -8,34 10,28l0 0z"/>
    <path class="fil1" d="M18463 6885c998,-602 1768,-1430 2494,-2329 834,-1031 1922,-1822 2708,-2893 45,-62 -45,-142 -91,-79 -748,1009 -1776,1752 -2578,2714 -793,952 -1572,1788 -2556,2552 -22,16 0,49 23,35l0 0z"/>
    <path class="fil1" d="M18386 6908c365,-209 628,-596 888,-917 403,-495 788,-1003 1197,-1493 444,-531 913,-995 1464,-1416 610,-468 1314,-912 1761,-1551 25,-36 -19,-74 -51,-44 -1044,999 -2271,1767 -3207,2878 -701,832 -1360,1697 -2071,2522 -11,12 5,29 19,21l0 0z"/>
    <path class="fil1" d="M23382 2257c-63,361 -245,695 -345,1048 -122,426 -189,869 -343,1286 -327,887 -1024,1650 -1590,2394 -278,365 -581,717 -853,1086 -314,426 -252,477 -106,34 300,-914 631,-1842 1209,-2621 45,-60 -43,-137 -88,-77 -348,470 -600,982 -819,1522 -177,437 -297,1172 -594,1537 -40,49 25,134 78,88 524,-448 934,-1022 1350,-1568 401,-525 825,-1047 1176,-1606 293,-468 450,-956 580,-1487 90,-372 186,-731 312,-1093 70,-198 130,-323 112,-539 -3,-45 -71,-50 -79,-4l0 0z"/>
    <path class="fil1" d="M29880 9925c-1157,-3588 -4455,-6216 -5230,-9925l-202 0c758,3723 4042,6434 5403,9935 7,19 35,10 29,-10l0 0z"/>
    <path class="fil1" d="M29875 9919c-751,-1224 -1819,-2208 -2554,-3451 -755,-1276 -1319,-2653 -1824,-4043 -27,-75 -145,-36 -117,39 483,1335 1019,2659 1730,3891 760,1318 1810,2389 2742,3579 11,14 32,0 23,-15l0 0z"/>
    <path class="fil1" d="M29913 10012c41,-1304 -654,-2651 -1361,-3706 -869,-1298 -2124,-2294 -2944,-3617 -45,-72 -153,1 -109,72 757,1241 1930,2172 2774,3354 429,601 804,1241 1081,1927 261,643 373,1304 529,1976 4,19 30,10 30,-6l0 0z"/>
    <path class="fil1" d="M29870 9953c-1105,-1159 -2317,-2181 -3121,-3595 -800,-1408 -1144,-3078 -1604,-4618 -24,-80 -147,-38 -123,42 466,1551 813,3228 1627,4643 782,1359 1972,2587 3191,3563 23,18 50,-14 30,-35l0 0z"/>
    <path class="fil1" d="M25138 1896c68,1462 -110,2913 -121,4373 -10,1369 376,2695 341,4070 -2,75 119,80 131,7 105,-626 481,-1185 603,-1820 118,-622 126,-1261 75,-1890 -124,-1499 -599,-2943 -810,-4429 -14,-96 -164,-86 -151,11 199,1425 643,2808 794,4240 71,677 78,1371 -48,2042 -120,636 -491,1191 -593,1822 44,2 87,5 131,7 28,-1375 -351,-2701 -347,-4069 4,-1429 323,-2955 70,-4370 -9,-46 -77,-43 -75,6l0 0z"/>
    <path class="fil1" d="M23655 5429c-189,838 20,1721 246,2532 289,1035 654,2048 998,3065 343,1016 672,2042 879,3095 233,1186 82,2275 -184,3439 51,10 102,19 153,29 211,-1586 -345,-3066 -786,-4563 -526,-1785 -906,-3578 -1027,-5437 -6,-94 -148,-83 -145,11 41,1656 412,3301 857,4891 455,1627 1247,3348 948,5069 -17,99 131,126 153,29 239,-1029 420,-2027 260,-3082 -147,-965 -431,-1911 -730,-2838 -659,-2043 -1601,-4055 -1572,-6237 1,-30 -44,-30 -50,-3l0 0z"/>
    <path class="fil1" d="M25646 17628c1152,-1267 1160,-3329 621,-4854 -623,-1759 -1794,-3277 -2299,-5083 -23,-83 -149,-39 -126,43 449,1610 1425,2997 2076,4523 340,796 577,1625 562,2498 -18,1067 -419,1914 -859,2857 -7,15 13,28 25,16l0 0z"/>
    <path class="fil1" d="M25608 17629c200,-531 -153,-1165 -335,-1655 -310,-836 -654,-1660 -873,-2527 -431,-1712 -452,-3490 -422,-5245 2,-78 -120,-69 -121,9 -30,1561 -15,3137 293,4673 153,762 391,1494 665,2219 267,708 886,1739 739,2508 -6,32 43,50 54,18l0 0z"/>
    <path class="fil1" d="M24118 12420c-200,959 -640,1694 -1349,2358 -102,96 -925,679 -938,830 12,-145 436,-707 526,-901 394,-842 658,-1744 951,-2625 254,-762 502,-1526 668,-2313 18,-82 -111,-107 -129,-24 -219,1044 -580,2049 -912,3060 -337,1025 -711,2004 -1252,2941 -25,43 38,75 69,45 1073,-1009 2245,-1777 2386,-3367 1,-13 -17,-17 -20,-4l0 0z"/>
    <path class="fil1" d="M12105 11483c2072,-66 4122,253 6183,-114 1705,-305 3229,-1028 4505,-2204 66,-61 -39,-149 -105,-91 -1400,1237 -3074,1962 -4919,2219 -1888,264 -3777,-13 -5670,108 -53,3 -47,83 6,82l0 0z"/>
    <path class="fil1" d="M12288 11460c1414,418 2882,720 4362,559 1524,-166 2852,-845 4215,-1498 69,-33 31,-147 -39,-113 -1358,645 -2669,1311 -4185,1479 -1487,164 -2899,-178 -4345,-470 -28,-6 -34,35 -8,43l0 0z"/>
    <path class="fil1" d="M12106 11453c1412,-383 2828,-274 4271,-316 1409,-42 2814,-158 4191,-471 69,-16 46,-135 -25,-122 -1477,264 -2918,467 -4423,509 -1358,38 -2709,-36 -4022,378 -15,4 -7,26 8,22l0 0z"/>
    <path class="fil1" d="M12113 11474c1240,-534 2637,-623 3972,-706 1398,-88 2802,186 4197,-36 39,-6 34,-58 -4,-59 -712,-28 -1425,47 -2138,31 -763,-17 -1503,-69 -2268,-10 -1284,100 -2593,180 -3781,716 -39,18 -18,81 22,64l0 0z"/>
    <path class="fil1" d="M20253 10706c-912,727 -1776,1465 -2846,1956 -955,438 -1946,860 -2961,1141 -254,71 -511,133 -769,187 -505,107 -459,113 -156,-7 430,-172 869,-376 1266,-616 390,-236 724,-548 1105,-794 470,-303 1025,-459 1533,-687 66,-30 30,-137 -36,-107 -692,311 -1343,524 -1950,990 -727,556 -1516,949 -2346,1330 -32,15 -28,72 13,65 2670,-444 5214,-1546 7173,-3429 15,-15 -9,-42 -26,-29l0 0z"/>
    <path class="fil1" d="M20857 23936c704,-1745 733,-3493 517,-5336 -105,-903 -250,-1800 -338,-2705 -95,-960 -52,-1892 -38,-2853 1,-85 -128,-87 -144,-9 -349,1652 62,3491 295,5134 277,1960 354,3857 -330,5751 -9,25 28,44 38,18l0 0z"/>
    <path class="fil1" d="M20888 23972c640,-1068 1004,-2316 960,-3563 -46,-1327 -458,-2605 -762,-3887 -23,-97 -170,-46 -146,50 292,1208 678,2408 762,3654 89,1326 -304,2536 -878,3716 -20,41 41,69 64,30l0 0z"/>
    <path class="fil1" d="M20876 23984c11,-614 -67,-1227 -86,-1840 -22,-692 48,-1380 97,-2069 85,-1195 193,-2396 135,-3594 -4,-88 -140,-79 -136,9 132,2507 -444,4996 -65,7498 5,35 54,31 55,-4l0 0z"/>
    <path class="fil1" d="M20866 23957c-281,-1385 -615,-2703 -435,-4130 80,-630 263,-1241 352,-1870 95,-664 138,-1341 152,-2012 1,-71 -121,-79 -127,-7 -56,771 -76,1543 -204,2306 -110,652 -286,1284 -332,1947 -87,1246 87,2616 561,3777 9,22 37,11 33,-11l0 0z"/>
    <path class="fil1" d="M20958 15282c210,1232 896,2059 1540,3096 740,1190 1283,2477 1401,3884 41,-9 83,-17 124,-25 -315,-948 -990,-1661 -1537,-2474 -643,-955 -1050,-2030 -1339,-3138 -20,-79 -141,-37 -120,41 256,987 606,1951 1135,2826 569,943 1386,1721 1740,2786 23,68 130,47 124,-25 -97,-1160 -497,-2252 -1057,-3266 -295,-534 -636,-1038 -986,-1537 -484,-690 -774,-1346 -940,-2174 -11,-52 -95,-49 -85,6l0 0z"/>
    <path class="fil1" d="M9474 17222c1661,-360 3280,-190 4956,-298 1532,-98 3034,-510 4470,-1037 66,-24 31,-126 -35,-103 -1578,532 -3180,958 -4851,1036 -1535,71 -3046,-2 -4548,380 -15,4 -7,26 8,22l0 0z"/>
    <path class="fil1" d="M9462 17276c1118,-110 2192,-40 3312,-26 1139,14 2245,-191 3306,-606 73,-28 33,-144 -39,-115 -1142,447 -2329,639 -3553,594 -994,-37 -2073,-221 -3041,78 -41,13 -29,79 15,75l0 0z"/>
    <path class="fil1" d="M9589 17192c1169,-290 2353,-682 3569,-618 1041,55 2054,194 3097,50 82,-11 75,-133 -9,-129 -1145,53 -2264,-62 -3406,-62 -1101,0 -2233,364 -3265,718 -27,9 -13,48 14,41l0 0z"/>
    <path class="fil1" d="M9520 17251c1319,44 2520,687 3860,528 555,-66 1099,-222 1617,-429 635,-255 1214,-673 1869,-868 49,-14 34,-96 -18,-88 -565,89 -1039,449 -1553,683 -638,289 -1316,507 -2015,580 -1300,135 -2478,-486 -3762,-434 -18,1 -15,27 2,28l0 0z"/>
    <path class="fil1" d="M15283 17175c-610,289 -1080,686 -1546,1169 -733,758 -1389,1321 -2464,1498 -186,31 -385,73 -574,72 -119,-1 -110,60 31,-20 372,-211 736,-413 1082,-668 672,-495 1223,-1124 1960,-1529 67,-36 2,-129 -64,-97 -539,267 -956,684 -1401,1078 -579,512 -1208,935 -1908,1265 -50,23 -42,106 21,101 919,-75 1812,-189 2553,-784 818,-658 1407,-1503 2328,-2048 20,-12 3,-48 -18,-37l0 0z"/>
    <path class="fil1" d="M12628 24993c498,-835 727,-1804 1198,-2655 362,-655 634,-1362 1093,-1961 445,-582 820,-1164 1204,-1789 36,-59 -61,-105 -97,-47 -225,366 -433,743 -674,1099 -232,343 -522,640 -747,987 -342,526 -575,1117 -874,1666 -466,857 -726,1802 -1139,2683 -11,23 23,39 36,17l0 0z"/>
    <path class="fil1" d="M12619 25024c184,-1008 309,-2052 659,-3021 503,-1392 1623,-2540 2798,-3396 51,-37 -2,-117 -54,-82 -1201,816 -2309,1997 -2822,3375 -359,964 -589,2093 -619,3122 -1,22 34,23 38,2l0 0z"/>
    <path class="fil1" d="M12669 24963c350,-570 847,-1049 1220,-1609 327,-489 628,-996 907,-1514 604,-1126 1022,-2332 1571,-3484 26,-54 -56,-93 -84,-40 -591,1133 -976,2351 -1581,3479 -325,607 -675,1205 -1068,1771 -323,466 -743,873 -998,1381 -11,21 21,35 33,16l0 0z"/>
    <path class="fil1" d="M12939 24398c503,-664 853,-1473 1292,-2183 349,-565 709,-1133 991,-1737 287,-617 465,-1267 812,-1858 26,-43 -44,-89 -74,-48 -347,476 -495,1044 -719,1582 -270,648 -644,1247 -1007,1846 -253,417 -515,821 -732,1257 -187,376 -342,784 -566,1139 -1,2 2,3 3,2l0 0z"/>
    <path class="fil1" d="M16050 18909c-668,1738 343,3657 -214,5395 -36,118 -78,233 -126,347 -112,104 -120,170 -24,199 67,-84 48,-444 52,-549 15,-378 -23,-749 -100,-1119 -215,-1040 -385,-1942 -63,-2989 22,-73 -95,-94 -117,-22 -221,723 -262,1497 -119,2240 171,893 414,1683 220,2601 -12,57 72,84 97,31 430,-907 488,-1703 409,-2698 -93,-1175 -159,-2251 31,-3421 4,-26 -36,-42 -46,-15l0 0z"/>
    <path class="fil1" d="M20851 16391c-625,711 -1224,1556 -1585,2438 -149,363 -211,728 -297,1108 -138,615 -425,1104 -754,1631 -21,34 28,75 59,51 741,-590 1289,-1325 1621,-2217 185,-497 334,-978 570,-1454 206,-415 334,-860 429,-1312 11,-53 -68,-66 -83,-15 -145,502 -283,980 -523,1445 -220,425 -318,844 -482,1294 -156,430 -365,842 -629,1216 -150,214 -316,422 -502,605 -142,141 -360,487 -151,93 169,-317 364,-598 469,-948 109,-361 133,-740 237,-1102 303,-1045 1024,-1939 1665,-2795 22,-29 -19,-66 -44,-38l0 0z"/>
    <path class="fil1" d="M24097 0c-718,786 -1538,1467 -2450,2019 -509,307 -1040,575 -1590,798 -159,65 -647,149 -750,272 -138,166 203,-29 243,-61 392,-306 720,-688 1116,-993 432,-333 893,-616 1377,-866 678,-350 1435,-659 2017,-1169l-226 0c-641,488 -1397,798 -2105,1189 -457,252 -890,544 -1293,874 -431,353 -801,868 -1320,1086 -67,28 -34,129 37,107 1918,-598 3773,-1694 5065,-3256l-121 0z"/>
   </g>
   <g>
    <path class="fil1" d="M2520 7592c1945,-1122 3516,-2731 5577,-3684 1679,-777 3464,-1216 5261,-1621 1084,-245 2092,-579 3018,-1214 467,-321 886,-694 1301,-1073l407 0c-1136,1099 -2506,1971 -4041,2353 -1879,468 -3760,802 -5556,1560 -2194,928 -3895,2552 -5960,3690 -7,4 -14,-7 -7,-11l0 0z"/>
    <path class="fil1" d="M17354 0c-535,95 -1113,73 -1633,0l1633 0z"/>
    <path class="fil1" d="M12894 0c81,33 162,64 243,93 1080,378 2586,293 3713,-93l380 0c-2,1 -4,2 -7,3 -1080,459 -2378,519 -3532,359 -407,-56 -788,-190 -1157,-362l360 0z"/>
    <path class="fil1" d="M14709 8101c134,-745 345,-1454 669,-2140 349,-741 803,-1428 1104,-2193 480,-1214 640,-2662 1379,-3768l259 0c-661,1199 -908,2502 -1421,3766 -295,725 -733,1373 -1099,2061 -384,720 -674,1487 -877,2277 -2,9 -16,6 -14,-3l0 0z"/>
    <path class="fil1" d="M17420 1231c-728,1030 -1546,1954 -1991,3153 -449,1213 -532,2473 -655,3748 -50,-9 -101,-19 -152,-28 87,-433 366,-787 626,-1133 485,-645 1035,-1238 1453,-1932 388,-644 687,-1349 736,-2107 38,-580 -163,-1145 -88,-1720 11,-83 130,-56 125,23 -38,579 154,1135 115,1715 -42,635 -261,1243 -557,1801 -305,575 -691,1087 -1103,1588 -423,514 -1031,1117 -1155,1793 -18,100 -161,69 -152,-28 129,-1288 224,-2555 695,-3773 464,-1200 1275,-2138 2086,-3115 9,-11 25,3 17,15l0 0z"/>
    <path class="fil1" d="M5691 1007c1820,-267 3620,74 5439,201 1773,123 3600,428 5326,-155 95,-32 175,113 80,164 -606,325 -1432,377 -2104,401 -889,33 -1787,-81 -2671,-159 -2011,-175 -4047,-610 -6069,-437 -10,1 -10,-13 -1,-15l0 0z"/>
    <path class="fil1" d="M13432 1529c-601,-191 -1145,-492 -1727,-729 -663,-271 -1390,-404 -2101,-467 -698,-61 -1412,-32 -2097,122 -608,136 -1115,508 -1723,625 -3,-50 -7,-101 -10,-152 1332,-77 2568,674 3841,954 701,154 1452,227 2153,38 560,-151 1078,-418 1662,-466 83,-7 89,116 9,127 -630,92 -1183,389 -1799,525 -548,121 -1132,82 -1682,-9 -1390,-229 -2747,-1143 -4174,-1017 -101,9 -104,-133 -10,-152 651,-131 1206,-526 1871,-653 621,-117 1261,-128 1890,-73 628,54 1258,179 1856,378 714,237 1350,653 2048,928 11,5 5,24 -7,21l0 0z"/>
    <path class="fil1" d="M9888 8560c481,-1248 1554,-2358 2427,-3344 636,-718 1390,-1318 2023,-2038 516,-586 934,-1307 1570,-1776 110,-80 227,95 118,176 -637,472 -1056,1218 -1587,1796 -630,687 -1378,1254 -2008,1943 -896,980 -1926,2053 -2494,3267 -15,32 -62,8 -49,-24l0 0z"/>
    <path class="fil1" d="M15346 2144c-526,556 -1275,744 -1904,1151 -637,413 -1211,970 -1683,1562 -416,523 -679,1140 -955,1743 -306,668 -612,1347 -830,2049 -42,-13 -83,-27 -124,-40 626,-1151 1882,-1984 2856,-2818 490,-421 991,-845 1372,-1371 511,-708 861,-1516 1190,-2320 32,-77 146,-21 117,56 -515,1350 -1178,2484 -2262,3436 -1057,928 -2479,1802 -3155,3073 -33,62 -145,34 -123,-40 207,-691 502,-1354 803,-2008 259,-564 504,-1155 873,-1658 420,-572 947,-1081 1509,-1512 710,-543 1595,-768 2283,-1339 21,-18 51,16 32,36l1 0z"/>
    <path class="fil1" d="M1377 1516c1418,-288 2738,237 4038,745 1664,651 3339,931 5122,738 93,-11 102,131 10,143 -1463,197 -2910,25 -4300,-462 -1579,-552 -3137,-1435 -4866,-1143 -12,2 -16,-19 -4,-21l0 0z"/>
    <path class="fil1" d="M9056 3118c-1132,413 -2467,94 -3569,-263 -1379,-446 -2698,-1074 -4158,-1204 -62,-6 -64,-101 -9,-118 265,-83 493,-330 753,-444 287,-125 590,-205 902,-237 568,-58 1139,44 1680,217 1542,493 2846,1518 4403,1977 63,18 47,117 -19,102 -2245,-517 -4687,-3197 -7116,-1855 -80,44 -477,250 -495,334 42,-196 897,47 999,70 685,159 1347,401 2006,645 1552,574 2954,973 4614,732 26,-4 33,36 9,44l0 0z"/>
    <path class="fil1" d="M6121 8812c919,-949 1608,-1996 2362,-3072 733,-1046 1680,-2558 2972,-2969 48,-16 84,52 40,81 -1310,844 -2222,1988 -3100,3265 -686,998 -1335,1903 -2218,2744 -34,33 -90,-14 -56,-49l0 0z"/>
    <path class="fil1" d="M10527 3476c-506,357 -1061,634 -1529,1045 -529,467 -932,1052 -1254,1677 -477,926 -918,1844 -1547,2680 -32,-27 -64,-55 -96,-83 154,-156 386,-252 568,-370 496,-321 964,-686 1397,-1088 614,-568 1170,-1223 1594,-1945 394,-669 510,-1454 931,-2105 44,-67 158,-16 116,56 -418,697 -556,1503 -995,2193 -407,642 -883,1235 -1432,1760 -397,379 -825,725 -1276,1037 -250,173 -598,322 -807,545 -56,60 -144,-18 -96,-83 749,-1004 1194,-2152 1861,-3200 636,-999 1513,-1604 2535,-2165 30,-17 59,25 30,46l0 0z"/>
    <path class="fil1" d="M8500 3896c-1231,110 -2477,391 -3482,1149 -508,383 -935,863 -1322,1364 -203,262 -399,519 -630,757 -29,30 -336,298 -329,317 -30,-72 150,-83 253,-122 1150,-431 2306,-933 3260,-1722 723,-599 1382,-1389 2230,-1814 35,-18 67,27 34,51 -881,657 -1642,1462 -2528,2107 -1039,757 -2255,1209 -3443,1671 -53,21 -108,-55 -64,-96 946,-892 1622,-2057 2723,-2782 968,-638 2148,-903 3292,-971 59,-3 65,86 6,91l0 0z"/>
   </g>
  </g>
 </g>
</svg>
